<?xml version="1.0" standalone="no"?>
<!DOCTYPE svg PUBLIC "-//W3C//DTD SVG 20010904//EN"
 "http://www.w3.org/TR/2001/REC-SVG-20010904/DTD/svg10.dtd">
<svg version="1.0" xmlns="http://www.w3.org/2000/svg"
 width="594.000000pt" height="640.000000pt" viewBox="0 0 594.000000 640.000000"
 preserveAspectRatio="xMidYMid meet">

<g transform="translate(0.000000,640.000000) scale(0.100000,-0.100000)"
fill="#000000" stroke="none">
<path d="M2200 6268 c-22 -37 -24 -44 -11 -52 5 -4 111 -10 236 -15 125 -5
229 -12 232 -15 6 -5 -47 -126 -158 -361 -71 -153 -406 -878 -454 -985 -24
-52 -64 -140 -90 -195 -26 -55 -66 -143 -90 -195 -45 -100 -94 -206 -152 -330
-19 -41 -55 -118 -78 -170 -24 -52 -62 -135 -85 -185 -23 -49 -77 -166 -120
-260 -43 -93 -91 -199 -108 -235 -41 -89 -359 -780 -499 -1085 -64 -137 -124
-269 -135 -291 -18 -39 -22 -42 -71 -48 -29 -3 -95 -6 -147 -6 -52 0 -145 -3
-207 -7 l-112 -6 -16 -39 c-8 -21 -15 -41 -15 -43 0 -3 1143 -4 2541 -3 l2541
3 52 115 c29 63 62 135 74 160 147 317 230 505 226 512 -6 10 -85 10 -99 0 -6
-4 -44 -47 -85 -97 -107 -129 -304 -322 -380 -371 -298 -191 -515 -223 -1518
-216 -433 2 -433 2 -427 23 4 12 28 67 55 122 52 112 171 369 305 662 124 269
129 281 265 575 67 146 174 378 237 515 63 138 134 291 157 340 23 50 79 171
125 270 134 294 118 269 176 277 28 3 100 7 160 7 61 1 154 4 208 8 94 6 99 7
113 34 33 64 106 59 -903 57 l-918 -3 -20 -37 c-11 -20 -17 -39 -14 -42 2 -3
109 -9 237 -14 128 -5 235 -12 239 -16 3 -3 -40 -106 -97 -228 -57 -123 -175
-378 -262 -568 -88 -190 -173 -374 -190 -410 -17 -36 -65 -141 -108 -235 -43
-93 -91 -199 -108 -235 -16 -36 -58 -126 -92 -200 -34 -74 -76 -164 -92 -200
-28 -59 -155 -335 -223 -485 -15 -33 -43 -93 -61 -133 l-34 -73 -330 3 c-202
2 -333 7 -339 13 -6 6 1 32 19 70 29 63 134 290 177 385 14 30 41 89 60 130
19 41 73 158 120 260 47 102 99 214 115 250 17 36 52 113 78 171 27 58 71 154
99 213 28 60 51 110 51 111 0 2 35 79 79 171 43 93 115 249 160 347 112 244
122 266 261 567 67 146 135 293 151 328 16 34 42 90 58 125 16 34 137 298 270
587 133 289 250 541 259 560 16 32 22 36 72 42 30 3 102 6 160 7 58 1 149 4
203 8 94 6 99 7 113 34 32 64 105 59 -901 59 l-915 0 -20 -32z"/>
<path d="M2027 1483 c-19 -43 -57 -123 -82 -178 -26 -55 -56 -120 -67 -145
-23 -51 -49 -108 -138 -300 -34 -74 -74 -160 -87 -190 -50 -108 -95 -206 -135
-291 l-40 -86 -66 -7 c-37 -3 -107 -6 -157 -6 -49 0 -134 -3 -189 -7 -96 -6
-99 -7 -117 -37 -10 -17 -19 -37 -19 -43 0 -10 392 -13 1925 -13 l1926 0 40
88 c23 48 75 161 116 252 42 91 96 208 120 260 60 126 83 180 83 191 0 5 -22
9 -49 9 l-49 0 -83 -97 c-118 -140 -304 -323 -376 -372 -129 -86 -257 -140
-403 -170 -124 -25 -171 -32 -285 -41 -205 -17 -1542 -6 -1561 12 -4 4 6 33
21 65 15 32 51 110 80 173 29 63 69 151 90 195 20 44 61 132 90 195 65 142 84
183 180 390 42 91 83 180 91 198 l14 32 -418 0 -419 0 -36 -77z"/>
</g>
</svg>
